<svg xmlns="http://www.w3.org/2000/svg" width="300" height="160" viewBox="0 0 300 160" role="img" aria-labelledby="title desc">
<title id="title">Dudarev Motorsport — симрейсинговое оборудование</title>
<desc id="desc">Скидка по промокоду ASG на весь ассортимент. Логотип, надписи и оформление выполнены векторными контурами.</desc>
<rect width="300" height="160" fill="#ffffff"/>
<g transform="translate(16 3) scale(.3901019 .3720930)"><g transform="scale(1.0)"><path d="M0 0 C0.67 -0.01 1.35 -0.01 2.04 -0.02 C4.27 -0.03 6.49 -0.03 8.72 -0.03 C10.28 -0.03 11.83 -0.03 13.39 -0.04 C16.66 -0.05 19.93 -0.05 23.2 -0.04 C27.35 -0.04 31.51 -0.05 35.67 -0.08 C38.89 -0.09 42.11 -0.09 45.33 -0.09 C46.86 -0.09 48.39 -0.09 49.92 -0.1 C70.13 -0.22 85.51 5.35 100.37 19.29 C112.1 31.42 116.8 47.08 116.66 63.59 C116.65 64.19 116.65 64.19 116.63 67.22 C116.48 75.58 115.85 82.63 112.22 90.27 C111.79 91.22 111.37 92.16 110.93 93.13 C107.44 100.18 102.75 105.73 97.22 111.27 C96.58 111.92 95.94 112.57 95.29 113.24 C83.68 124.24 67.65 128.64 51.99 128.42 C42.85 127.93 35.58 124.97 29.22 118.27 C29.38 117.78 29.38 117.78 30.22 115.27 C32.94 114.11 32.94 114.11 36.28 113.09 C37.39 112.74 38.49 112.4 39.63 112.04 C40.48 111.79 41.34 111.54 42.22 111.27 C39.07 102.86 26.43 97.65 18.78 93.77 C18.45 93.61 18.45 93.61 16.78 92.75 C12.94 90.87 9.47 89.75 5.22 89.27 C5.12 89.83 5.02 90.38 4.92 90.95 C0.54 114.77 0.54 114.77 -4.72 121.9 C-6.78 123.27 -6.78 123.27 -9.34 123.77 C-11.78 123.27 -11.78 123.27 -13.41 121.53 C-14.97 118.96 -15.16 117.6 -15.17 114.62 C-15.18 113.69 -15.19 112.76 -15.2 111.8 C-15.19 110.79 -15.19 109.77 -15.19 108.73 C-15.19 107.65 -15.2 106.58 -15.21 105.47 C-15.22 101.92 -15.22 98.37 -15.21 94.81 C-15.22 92.35 -15.22 89.88 -15.23 87.41 C-15.24 82.23 -15.24 77.05 -15.23 71.88 C-15.22 65.24 -15.24 58.61 -15.27 51.98 C-15.28 46.88 -15.28 41.78 -15.28 36.68 C-15.28 34.23 -15.28 31.79 -15.3 29.34 C-15.31 25.92 -15.3 22.5 -15.28 19.08 C-15.29 18.58 -15.29 18.58 -15.31 16.02 C-15.25 10.3 -14.79 6.7 -10.78 2.27 C-7.42 -0.22 -4.09 0.02 0 0 Z M7.22 23.27 C8.87 25.91 8.87 25.91 17.22 39.27 C14.19 37.71 11.16 36.15 8.14 34.59 C5.22 33.27 5.22 33.27 2.22 33.27 C1.68 35.17 1.17 37.06 0.66 38.96 C0.37 40.02 0.08 41.07 -0.22 42.16 C-0.8 45.4 -0.88 47.19 0.22 50.27 C2 52.49 2 52.49 4.28 54.65 C5.09 55.43 5.9 56.2 6.74 57 C9.55 59.58 12.39 62.11 15.3 64.57 C17.71 66.71 19.96 68.98 22.22 71.27 C21.65 71 21.09 70.73 20.51 70.45 C17.95 69.22 15.4 68 12.84 66.77 C11.95 66.35 11.06 65.92 10.15 65.47 C9.3 65.07 8.45 64.66 7.57 64.24 C6.78 63.87 6 63.49 5.19 63.1 C3.22 62.27 3.22 62.27 1.22 62.27 C0.99 67.02 1.35 70.88 3.22 75.27 C7.47 78.47 12.05 80.34 16.96 82.33 C20.59 83.85 24.06 85.67 27.53 87.52 C28.23 87.89 28.92 88.26 29.64 88.64 C41.94 95.25 53.85 102.81 64.86 111.42 C68.73 114.34 68.73 114.34 71.17 114.02 C74.77 112.71 77.64 110.44 80.72 108.21 C81.38 107.76 82.05 107.31 82.73 106.84 C87.61 103.32 89.94 99.8 92.22 94.27 C92.63 93.47 93.04 92.67 93.47 91.84 C94.38 88.72 94.3 86.02 94.22 82.79 C94.22 80.12 94.44 77.55 94.72 74.9 C95.46 67.33 95.84 59.75 94.22 52.27 C85.74 48.63 77.68 47.33 68.53 46.52 C67.89 46.46 67.89 46.46 64.63 46.15 C61.5 45.84 58.36 45.55 55.22 45.27 C55.22 45.93 55.22 46.59 55.22 47.27 C60.31 49.25 65.08 49.77 70.47 50.21 C77.37 50.85 83.68 51.88 90.22 54.27 C90.79 75 90.79 75 87.22 83.27 C80.93 85.23 76.51 81.96 70.95 79.13 C69.17 78.22 67.37 77.35 65.57 76.47 C64.43 75.9 63.29 75.33 62.12 74.74 C61.08 74.22 60.05 73.7 58.98 73.17 C54.29 69.96 52.07 65.23 49.66 60.21 C48.35 57.5 47.06 55.04 45.41 52.52 C43.85 49.57 43.79 47.57 44.22 44.27 C45.77 42.23 46.65 41.38 49.2 40.91 C53.68 41.01 57.56 41.52 61.89 42.76 C66.91 43.87 72.1 43.98 77.22 44.27 C75.49 35.29 70.9 29.21 65.22 22.27 C74.74 27.13 79.47 32.78 83.57 42.7 C85.68 46 87.48 46.42 91.22 47.27 C88.08 35.31 80.77 25.74 70.16 19.47 C51.06 9.23 23.88 6.61 7.22 23.27 Z " fill="#000000" transform="translate(15.78125,0.725341796875)"/><path d="M0 0 C7.69 -0.08 15.39 -0.16 23.31 -0.25 C25.72 -0.29 28.12 -0.32 30.6 -0.36 C32.54 -0.37 34.48 -0.38 36.43 -0.39 C36.92 -0.4 36.92 -0.4 39.4 -0.45 C49.25 -0.46 58.14 2.06 65.34 9.04 C71.18 15.96 72.23 24.15 72 33 C71.05 41.99 67.92 48.15 61 54 C52.89 59.51 43.91 60.3 34.38 60.2 C33.5 60.19 32.62 60.19 31.72 60.19 C28.48 60.18 25.24 60.15 22 60.12 C14.74 60.08 7.48 60.04 0 60 C0 40.2 0 20.4 0 0 Z M16 13 C16 24.22 16 35.44 16 47 C17.88 47.03 17.88 47.03 27.38 47.19 C28.54 47.21 29.7 47.24 30.9 47.27 C38.52 47.33 46.59 47.07 52.5 41.75 C56.13 35.09 56.5 29.31 55 22 C53.2 17.78 51.1 16 47 14 C43.55 12.88 40.32 12.89 36.7 12.9 C35.62 12.9 34.53 12.91 33.41 12.91 C32.72 12.91 32.72 12.91 29.25 12.94 C24.88 12.96 20.5 12.98 16 13 Z " fill="#000000" transform="translate(156,17)"/><path d="M0 0 C5.28 0 10.56 0 16 0 C16 0.64 16 0.64 16.03 3.9 C16.07 8.67 16.13 13.44 16.21 18.21 C16.24 20.27 16.26 22.34 16.27 24.4 C16.29 27.37 16.34 30.33 16.39 33.3 C16.39 34.23 16.39 35.15 16.39 36.1 C16.54 42.42 16.54 42.42 18.65 45.08 C21.62 46.24 23.97 46.37 27.16 46.36 C28.34 46.36 29.53 46.36 30.75 46.36 C31.37 46.35 31.37 46.35 34.5 46.31 C35.12 46.31 35.12 46.31 38.25 46.32 C48.57 46.26 48.57 46.26 52 44 C53.13 41.74 53.15 40.43 53.21 37.92 C53.23 37.08 53.25 36.24 53.27 35.37 C53.27 34.92 53.27 34.92 53.32 32.62 C53.34 31.69 53.36 30.76 53.38 29.8 C53.44 26.83 53.5 23.85 53.56 20.88 C53.61 18.86 53.65 16.85 53.69 14.83 C53.8 9.89 53.9 4.94 54 0 C59.28 0 64.56 0 70 0 C70.07 5.8 70.13 11.6 70.16 17.4 C70.18 19.36 70.2 21.33 70.23 23.3 C70.26 26.15 70.28 28.99 70.29 31.84 C70.31 32.7 70.32 33.57 70.34 34.46 C70.34 41.12 69.83 48.72 65.31 53.95 C59.4 59.37 53.85 60.31 46.08 60.34 C45.22 60.34 44.36 60.35 43.47 60.36 C41.66 60.37 39.84 60.37 38.03 60.37 C35.27 60.37 32.52 60.41 29.77 60.45 C27.99 60.46 26.22 60.46 24.45 60.46 C24.05 60.47 24.05 60.47 21.99 60.5 C15.98 60.46 11.21 59.01 6 56 C4.06 54 4.06 54 3 52 C2.63 51.34 2.26 50.68 1.88 50 C0.34 46.48 -0.12 43.33 -0.11 39.51 C-0.11 39.07 -0.11 39.07 -0.11 36.84 C-0.11 35.9 -0.1 34.95 -0.1 33.98 C-0.1 33.01 -0.09 32.04 -0.09 31.04 C-0.09 27.94 -0.08 24.85 -0.06 21.75 C-0.06 19.65 -0.05 17.55 -0.05 15.45 C-0.04 10.3 -0.02 5.15 0 0 Z " fill="#000000" transform="translate(234,17)"/><path d="M0 0 C3.76 -0.04 3.76 -0.04 22.81 -0.25 C23.99 -0.27 23.99 -0.27 29.94 -0.36 C31.84 -0.37 33.74 -0.38 35.64 -0.39 C36.6 -0.41 37.56 -0.43 38.55 -0.45 C48.43 -0.46 57.1 2.16 64.34 9.07 C71.14 17.01 71.64 25.93 71 36 C69.67 43.4 66.01 50.02 59.93 54.54 C51.59 59.52 43.04 60.3 33.5 60.2 C32.64 60.19 31.78 60.19 30.9 60.19 C27.75 60.18 24.59 60.15 21.44 60.12 C17.9 60.1 17.9 60.1 0 60 C0 40.2 0 20.4 0 0 Z M15 13 C14.98 17.68 14.96 22.36 14.95 27.04 C14.94 28.64 14.93 30.23 14.92 31.83 C14.91 34.11 14.91 36.4 14.9 38.68 C14.9 39.4 14.89 40.12 14.89 40.86 C14.89 42.57 14.94 44.29 15 46 C17.43 48.43 23.8 47.19 27.06 47.19 C27.58 47.19 27.58 47.19 30.17 47.22 C37.35 47.24 44.44 47.24 50.38 42.69 C54.36 38.61 55.1 35.7 55.31 30.12 C55.19 25.29 54.5 22.16 52 18 C46.82 13.9 43.08 12.87 36.58 12.9 C35.33 12.91 34.07 12.91 32.78 12.91 C32.13 12.92 32.13 12.92 28.81 12.94 C27.48 12.94 26.14 12.95 24.81 12.95 C21.54 12.96 18.27 12.98 15 13 Z " fill="#000000" transform="translate(311,17)"/><path d="M0 0 C7.59 0 15.18 0 23 0 C24.54 3.29 26.07 6.58 27.61 9.87 C29.43 13.79 31.27 17.71 33.11 21.63 C39.05 34.31 44.82 46.99 50 60 C44.39 60 38.78 60 33 60 C28 50.25 28 50.25 28 48 C17.44 48 6.88 48 -4 48 C-4.66 49.98 -5.32 51.96 -6 54 C-6.99 55.98 -7.98 57.96 -9 60 C-14.61 60 -20.22 60 -26 60 C-24.03 53.77 -21.73 47.92 -18.95 42.01 C-18.56 41.19 -18.18 40.36 -17.78 39.51 C-16.57 36.9 -15.35 34.29 -14.12 31.69 C-12.52 28.26 -10.92 24.82 -9.32 21.39 C-8.94 20.57 -8.56 19.75 -8.17 18.91 C-5.28 12.67 -2.58 6.38 0 0 Z M11 14 C9.66 16.93 8.33 19.87 7 22.81 C6.62 23.65 6.24 24.48 5.84 25.34 C5.48 26.14 5.12 26.94 4.75 27.77 C4.41 28.51 4.08 29.25 3.73 30.01 C3 32 3 32 3 35 C8.94 35 14.88 35 21 35 C20.26 31.28 19.78 29.2 18.15 26.01 C17.79 25.31 17.44 24.6 17.07 23.87 C16.7 23.15 16.32 22.43 15.94 21.69 C15.56 20.95 15.18 20.21 14.79 19.44 C13.87 17.63 12.94 15.81 12 14 C11.67 14 11.34 14 11 14 Z " fill="#000000" transform="translate(405,17)"/><path d="M0 0 C9.24 -0.08 18.48 -0.16 28 -0.25 C30.9 -0.29 33.81 -0.32 36.8 -0.36 C39.11 -0.37 41.43 -0.38 43.75 -0.39 C44.94 -0.41 46.13 -0.43 47.36 -0.45 C54.39 -0.46 59.05 0.13 65 4 C70.1 10.28 70.64 16.14 70 24 C68.42 31.72 64.39 34.74 58 39 C58.36 39.57 58.73 40.13 59.1 40.71 C60.74 43.26 62.37 45.82 64 48.38 C64.57 49.26 65.14 50.15 65.73 51.07 C66.28 51.92 66.82 52.77 67.38 53.65 C67.88 54.43 68.38 55.22 68.9 56.03 C70 58 70 58 70 60 C64.07 61.19 57.74 62.43 52 60 C49.5 57 48.03 53.61 46.44 50.06 C44.69 46.25 43.03 42.94 40 40 C32.05 37.17 23.25 38.21 15 39 C15 45.93 15 52.86 15 60 C10.05 60 5.1 60 0 60 C0 40.2 0 20.4 0 0 Z M15 13 C15 16.96 15 20.92 15 25 C22.33 25.37 29.66 25.7 37 26 C37.65 26.03 37.65 26.03 40.96 26.17 C41.47 26.18 41.47 26.18 44.06 26.25 C44.92 26.28 45.78 26.3 46.66 26.33 C49.72 25.9 51.56 24.87 54 23 C54.48 19.65 54.76 17.27 52.98 14.3 C49.83 12.23 46.48 12.63 42.83 12.71 C42.04 12.71 41.24 12.72 40.42 12.72 C37.89 12.74 35.35 12.77 32.81 12.81 C31.09 12.83 29.37 12.84 27.65 12.85 C23.43 12.89 19.22 12.94 15 13 Z " fill="#000000" transform="translate(461,17)"/><path d="M0 0 C21.78 0 43.56 0 66 0 C66 4.29 66 8.58 66 13 C49.17 13 32.34 13 15 13 C15.33 15.97 15.66 18.94 16 22 C30.85 22.33 45.7 22.66 61 23 C61 27.29 61 31.58 61 36 C46.15 36.33 31.3 36.66 16 37 C16 39.97 16 42.94 16 46 C24.25 46.16 24.25 46.16 66 47 C66 51.29 66 55.58 66 60 C44.22 60 22.44 60 0 60 C0 40.2 0 20.4 0 0 Z " fill="#000000" transform="translate(539,17)"/><path d="M0 0 C5.61 0 11.22 0 17 0 C17.57 1.26 18.13 2.52 18.71 3.82 C20.81 8.5 22.91 13.17 25.01 17.83 C25.92 19.86 26.83 21.88 27.73 23.9 C29.03 26.81 30.34 29.71 31.65 32.62 C31.85 33.07 31.85 33.07 32.88 35.37 C33.26 36.21 33.64 37.05 34.03 37.92 C34.36 38.66 34.69 39.4 35.04 40.17 C36 42 36 42 38 44 C38.53 42.81 39.07 41.62 39.62 40.39 C41.61 35.97 43.59 31.55 45.58 27.13 C46.44 25.22 47.3 23.3 48.16 21.39 C49.39 18.64 50.63 15.89 51.87 13.14 C52.25 12.29 52.63 11.43 53.03 10.55 C53.39 9.75 53.75 8.95 54.12 8.13 C54.44 7.42 54.75 6.72 55.08 6 C56.01 3.98 57.01 1.99 58 0 C63.61 0 69.22 0 75 0 C73.08 6.04 70.89 11.75 68.2 17.48 C67.84 18.26 67.48 19.03 67.11 19.83 C65.97 22.28 64.83 24.74 63.69 27.19 C62.19 30.41 60.69 33.63 59.2 36.86 C58.84 37.63 58.48 38.41 58.11 39.21 C54.93 46.08 51.94 53.02 49 60 C41.41 60 33.82 60 26 60 C24.96 57.73 23.92 55.46 22.85 53.12 C22.5 52.34 22.14 51.56 21.77 50.76 C19.99 46.86 18.21 42.96 16.43 39.06 C15.69 37.45 14.96 35.85 14.23 34.24 C14.04 33.84 14.04 33.84 13.13 31.83 C11 27.18 8.86 22.53 6.71 17.88 C6.24 16.87 5.78 15.86 5.3 14.82 C4.45 12.98 3.6 11.14 2.74 9.31 C2.38 8.51 2.01 7.7 1.62 6.88 C1.47 6.53 1.47 6.53 0.66 4.8 C0 3 0 3 0 0 Z " fill="#000000" transform="translate(611,17)"/><path d="M0 0 C2.05 0.03 4.1 0.07 6.15 0.1 C7.5 3.09 8.83 6.09 10.15 9.1 C10.36 9.56 10.36 9.56 11.4 11.91 C12.15 14.1 12.15 14.1 12.15 18.1 C12.81 18.1 13.47 18.1 14.15 18.1 C14.23 17.15 14.32 16.2 14.4 15.22 C15.06 10.47 16.68 3.57 20.15 0.1 C22.79 0.1 25.43 0.1 28.15 0.1 C28.15 8.68 28.15 17.26 28.15 26.1 C26.5 26.1 24.85 26.1 23.15 26.1 C22.82 20.49 22.49 14.88 22.15 9.1 C20.17 14.71 18.19 20.32 16.15 26.1 C14.17 26.1 12.19 26.1 10.15 26.1 C9.34 24.16 8.53 22.22 7.71 20.29 C7.49 19.75 7.49 19.75 6.34 17.02 C5.55 15.07 4.82 13.09 4.15 11.1 C3.82 16.05 3.49 21 3.15 26.1 C1.17 26.1 -0.81 26.1 -2.85 26.1 C-2.88 21.95 -2.89 17.81 -2.91 13.66 C-2.92 12.48 -2.93 11.29 -2.94 10.07 C-2.94 8.95 -2.94 7.82 -2.95 6.66 C-2.95 5.62 -2.96 4.58 -2.96 3.51 C-2.8 0.15 -2.8 0.15 0 0 Z " fill="#000000" transform="translate(158.84765625,86.90234375)"/><path d="M0 0 C3.43 4.43 3.47 8.02 2.94 13.5 C1.31 17.24 -0.62 19.35 -4.06 21.5 C-9.54 23.32 -15.09 23.22 -20.5 21.25 C-24.15 18.76 -25.67 16.67 -27.06 12.5 C-27.43 7.48 -27.2 4.5 -24.06 0.5 C-17.23 -6.15 -7.3 -5.96 0 0 Z M-19.06 2.5 C-21.18 5.12 -21.18 7.32 -20.94 10.56 C-20.5 13.22 -20.19 14.34 -18.5 16.5 C-14.97 17.95 -11.76 18.27 -8.06 17.5 C-5.06 15.44 -5.06 15.44 -3.06 12.5 C-2.5 8.94 -2.5 8.94 -3.06 5.5 C-4.93 3.14 -6.38 1.84 -9.06 0.5 C-12.94 0.25 -15.84 0.2 -19.06 2.5 Z " fill="#000000" transform="translate(227.0625,91.5)"/><path d="M0 0 C8.25 0 16.5 0 25 0 C25 1.65 25 3.3 25 5 C21.7 5 18.4 5 15 5 C15 11.6 15 18.2 15 25 C13.02 25 11.04 25 9 25 C9 18.4 9 11.8 9 5 C6.03 5 3.06 5 0 5 C0 3.35 0 1.7 0 0 Z " fill="#000000" transform="translate(240,88)"/><path d="M0 0 C3.72 2.79 5.38 5.5 6.17 10.02 C6.32 14.58 5.78 17.25 2.92 20.89 C-2.43 25.03 -7.19 25.77 -13.83 25.02 C-18.48 23.35 -21.42 21.37 -23.83 17.02 C-24.63 12.1 -24.32 8.19 -22.39 3.58 C-16.59 -2.22 -7.4 -3.97 0 0 Z M-16.83 6.02 C-18.44 9.24 -18.42 12.54 -17.83 16.02 C-15.71 18.67 -14.21 19.76 -10.86 20.39 C-7.4 20.6 -5.24 20.31 -2.39 18.33 C-0.63 15.72 0.02 14.16 0.17 11.02 C-0.63 7.66 -1.41 6.35 -4.14 4.21 C-9.3 1.93 -12.32 2.76 -16.83 6.02 Z " fill="#000000" transform="translate(298.828125,88.98046875)"/><path d="M0 0 C1.68 -0.05 1.68 -0.05 10.19 -0.31 C10.71 -0.34 10.71 -0.34 13.37 -0.45 C18.04 -0.52 20.29 -0.53 24.14 2.33 C26.4 5.58 26.66 7.12 26 11 C25.46 11.66 24.93 12.32 24.38 13 C23.92 13.66 23.47 14.32 23 15 C23.75 18 23.75 18 25 21 C25.35 22.33 25.69 23.66 26 25 C23.31 25.5 23.31 25.5 20 25 C18.77 23.22 18.77 23.22 17.62 21 C16.43 18.78 16.43 18.78 15 17 C12.06 16.25 10.07 16.58 7 17 C6.67 19.64 6.34 22.28 6 25 C4.02 25 2.04 25 0 25 C0 16.75 0 8.5 0 0 Z M6 5 C6 6.98 6 8.96 6 11 C7.74 12.74 10.08 12.17 12.44 12.19 C12.93 12.19 12.93 12.19 15.43 12.23 C18 12 18 12 20 10 C19.67 8.35 19.34 6.7 19 5 C14.71 5 10.42 5 6 5 Z " fill="#000000" transform="translate(317,88)"/><path d="M0 0 C3 3.26 3 3.26 3 6 C0.12 6.12 0.12 6.12 -3 6 C-3.66 5.34 -4.32 4.68 -5 4 C-8.5 3.75 -8.5 3.75 -12 4 C-12.66 4.66 -13.32 5.32 -14 6 C-9.86 7.79 -5.66 8.92 -1.3 10.02 C1.5 11.21 2.5 12.38 4 15 C3.93 18.56 3.72 20.31 1.12 22.81 C-3.77 25.55 -8.54 25.46 -14 25 C-17.56 23.88 -17.56 23.88 -20 22 C-20.88 18.81 -20.88 18.81 -21 16 C-19.35 16 -17.7 16 -16 16 C-15.67 16.99 -15.34 17.98 -15 19 C-11.37 19 -7.74 19 -4 19 C-4 18.01 -4 17.02 -4 16 C-4.98 15.76 -5.95 15.52 -6.96 15.27 C-7.59 15.1 -7.59 15.1 -10.81 14.25 C-12.08 13.93 -13.34 13.6 -14.64 13.27 C-18.12 11.96 -19.34 11.26 -21 8 C-20.93 4.56 -20.68 2.73 -18.31 0.19 C-12.45 -2.82 -6.06 -2.31 0 0 Z " fill="#000000" transform="translate(376,89)"/><path d="M0 0 C1.6 -0.05 1.6 -0.05 9.69 -0.31 C10.19 -0.34 10.19 -0.34 12.71 -0.45 C17.28 -0.52 19.35 -0.48 23.11 2.33 C25 5 25 5 25.56 8 C24.88 11.66 23.57 13.35 21 16 C18.12 17.44 15.58 17.09 12.38 17.06 C11.19 17.05 10 17.04 8.77 17.04 C7.86 17.02 6.94 17.01 6 17 C6 19.64 6 22.28 6 25 C4.02 25 2.04 25 0 25 C0 16.75 0 8.5 0 0 Z M6 5 C6 7.31 6 9.62 6 12 C7.79 12.05 9.58 12.09 11.38 12.12 C12.37 12.15 13.37 12.17 14.4 12.2 C17 12 17 12 19 10 C18.67 8.35 18.34 6.7 18 5 C14.04 5 10.08 5 6 5 Z " fill="#000000" transform="translate(392,88)"/><path d="M0 0 C3.63 3.74 3.33 7.2 3.29 12.23 C2.73 16.62 1.26 18.12 -2.06 21 C-6.34 23.61 -11.19 23.66 -16.06 23 C-19.76 21.77 -23.05 20.52 -25.26 17.2 C-26.99 12.47 -27.2 6.69 -25.22 2.02 C-22.67 -1.46 -19.51 -3.1 -15.31 -3.88 C-9.67 -4.18 -4.73 -3.09 0 0 Z M-20.06 5 C-20.58 9.21 -20.73 12.81 -18.62 16.56 C-14.79 18.71 -11.36 18.75 -7.06 18 C-4.5 16.56 -4.5 16.56 -3.06 14 C-2.59 10.93 -2.44 8.05 -3.06 5 C-5.24 2.08 -6.18 1.97 -9.94 1.12 C-14.26 0.71 -16.97 1.91 -20.06 5 Z " fill="#000000" transform="translate(454.0625,91)"/><path d="M0 0 C3.38 -0.06 6.76 -0.12 10.25 -0.19 C11.31 -0.21 12.37 -0.24 13.46 -0.27 C13.88 -0.27 13.88 -0.27 16.02 -0.29 C16.87 -0.31 17.73 -0.32 18.62 -0.34 C21.55 0.08 22.88 0.95 25 3 C26 6.31 26 6.31 26 10 C25.64 10.47 25.64 10.47 23.81 12.88 C22 16 22 16 22.62 18.38 C23.65 20.65 24.75 22.84 26 25 C23.69 25 21.38 25 19 25 C18.82 24.43 18.63 23.87 18.44 23.29 C17.49 20.89 16.62 19.02 15 17 C11.84 15.95 9.39 16 6 16 C6 18.97 6 21.94 6 25 C4.02 25 2.04 25 0 25 C0 16.75 0 8.5 0 0 Z M6 5 C6 7.31 6 9.62 6 12 C7.77 12.08 9.54 12.14 11.31 12.19 C12.3 12.22 13.28 12.26 14.3 12.29 C17 12 17 12 18.92 10.74 C19.28 10.16 19.63 9.59 20 9 C19.67 7.68 19.34 6.36 19 5 C14.71 5 10.42 5 6 5 Z " fill="#000000" transform="translate(470,88)"/><path d="M0 0 C8.25 0 16.5 0 25 0 C25 1.65 25 3.3 25 5 C22.03 5 19.06 5 16 5 C16 11.6 16 18.2 16 25 C14.02 25 12.04 25 10 25 C10 18.4 10 11.8 10 5 C6.7 5 3.4 5 0 5 C0 3.35 0 1.7 0 0 Z " fill="#000000" transform="translate(506,88)"/></g></g>
<path d="M16 58H260" fill="none" stroke="#e5e6e8" stroke-width="1"/>
<g data-label="МАГАЗИН СИМРЕЙСИНГ" fill="#111111" transform="matrix(0.0106694 0 0 -0.0107759 15.45293 84.73060)"><path d="M145 0V1466H588L854 466L1117 1466H1561V0H1286V1154L995 0H710L420 1154V0ZM3177 0H2855L2727 333H2141L2020 0H1706L2277 1466H2590ZM2632 580 2430 1124 2232 580ZM3349 1466H4342V1220H3645V0H3349ZM5817 0H5495L5367 333H4781L4660 0H4346L4917 1466H5230ZM5272 580 5070 1124 4872 580ZM6183 1066 5895 1133Q5988 1491 6424 1491Q6682 1491 6813.5 1377.5Q6945 1264 6945 1111Q6945 1006 6885.0 921.5Q6825 837 6705 773Q6851 723 6924.0 631.5Q6997 540 6997 406Q6997 213 6855.5 94.0Q6714 -25 6432 -25Q6202 -25 6069.0 51.5Q5936 128 5869 338L6140 427Q6182 295 6251.5 256.0Q6321 217 6423 217Q6563 217 6627.0 277.5Q6691 338 6691 416Q6691 506 6618.5 561.0Q6546 616 6400 616H6333V837H6367Q6503 837 6575.0 898.0Q6647 959 6647 1060Q6647 1140 6588.5 1195.0Q6530 1250 6421 1250Q6235 1250 6183 1066ZM7261 1466H7538V490L8132 1466H8427V0H8150V957L7557 0H7261ZM8730 0V1466H9026V889H9606V1466H9902V0H9606V641H9026V0ZM11715 539 12002 448Q11936 208 11782.5 91.5Q11629 -25 11393 -25Q11101 -25 10913.0 174.5Q10725 374 10725 720Q10725 1086 10914.0 1288.5Q11103 1491 11411 1491Q11680 1491 11848 1332Q11948 1238 11998 1062L11705 992Q11679 1106 11596.5 1172.0Q11514 1238 11396 1238Q11233 1238 11131.5 1121.0Q11030 1004 11030 742Q11030 464 11130.0 346.0Q11230 228 11390 228Q11508 228 11593.0 303.0Q11678 378 11715 539ZM12260 1466H12537V490L13131 1466H13426V0H13149V957L12556 0H12260ZM13724 0V1466H14167L14433 466L14696 1466H15140V0H14865V1154L14574 0H14289L13999 1154V0ZM15434 0V1466H15909Q16179 1466 16261 1444Q16387 1411 16472.0 1300.5Q16557 1190 16557 1015Q16557 880 16508.0 788.0Q16459 696 16383.5 643.5Q16308 591 16230 574Q16124 553 15923 553H15730V0ZM15730 1218V802H15892Q16067 802 16126.0 825.0Q16185 848 16218.5 897.0Q16252 946 16252 1011Q16252 1091 16205.0 1143.0Q16158 1195 16086 1208Q16033 1218 15873 1218ZM16800 0V1466H17887V1218H17096V893H17832V646H17096V247H17915V0ZM18170 1466H18447V490L19041 1466H19336V0H19059V957L18466 0H18170ZM18930 1831H19067Q19055 1695 18971.5 1617.5Q18888 1540 18755 1540Q18622 1540 18538.5 1617.5Q18455 1695 18443 1831H18580Q18587 1760 18630.0 1723.5Q18673 1687 18755 1687Q18837 1687 18880.0 1723.5Q18923 1760 18930 1831ZM20576 539 20863 448Q20797 208 20643.5 91.5Q20490 -25 20254 -25Q19962 -25 19774.0 174.5Q19586 374 19586 720Q19586 1086 19775.0 1288.5Q19964 1491 20272 1491Q20541 1491 20709 1332Q20809 1238 20859 1062L20566 992Q20540 1106 20457.5 1172.0Q20375 1238 20257 1238Q20094 1238 19992.5 1121.0Q19891 1004 19891 742Q19891 464 19991.0 346.0Q20091 228 20251 228Q20369 228 20454.0 303.0Q20539 378 20576 539ZM21121 1466H21398V490L21992 1466H22287V0H22010V957L21417 0H21121ZM22590 0V1466H22886V889H23466V1466H23762V0H23466V641H22886V0ZM24083 1466H25076V1220H24379V0H24083Z"/></g>
<g data-label="ОБОРУДОВАНИЯ" fill="#111111" transform="matrix(0.0106334 0 0 -0.0104914 16.05362 109.64274)"><path d="M89 724Q89 948 156 1100Q206 1212 292.5 1301.0Q379 1390 482 1433Q619 1491 798 1491Q1122 1491 1316.5 1290.0Q1511 1089 1511 731Q1511 376 1318.0 175.5Q1125 -25 802 -25Q475 -25 282.0 174.5Q89 374 89 724ZM394 734Q394 485 509.0 356.5Q624 228 801 228Q978 228 1091.5 355.5Q1205 483 1205 738Q1205 990 1094.5 1114.0Q984 1238 801 1238Q618 1238 506.0 1112.5Q394 987 394 734ZM1748 1466H2844V1220H2044V880H2440Q2604 880 2712.0 840.0Q2820 800 2896.5 692.0Q2973 584 2973 439Q2973 290 2896.0 184.0Q2819 78 2720.5 39.0Q2622 0 2440 0H1748ZM2044 246H2332Q2470 246 2526.0 259.5Q2582 273 2623.5 321.0Q2665 369 2665 439Q2665 541 2592.5 587.5Q2520 634 2345 634H2044ZM3154 724Q3154 948 3221 1100Q3271 1212 3357.5 1301.0Q3444 1390 3547 1433Q3684 1491 3863 1491Q4187 1491 4381.5 1290.0Q4576 1089 4576 731Q4576 376 4383.0 175.5Q4190 -25 3867 -25Q3540 -25 3347.0 174.5Q3154 374 3154 724ZM3459 734Q3459 485 3574.0 356.5Q3689 228 3866 228Q4043 228 4156.5 355.5Q4270 483 4270 738Q4270 990 4159.5 1114.0Q4049 1238 3866 1238Q3683 1238 3571.0 1112.5Q3459 987 3459 734ZM4807 0V1466H5282Q5552 1466 5634 1444Q5760 1411 5845.0 1300.5Q5930 1190 5930 1015Q5930 880 5881.0 788.0Q5832 696 5756.5 643.5Q5681 591 5603 574Q5497 553 5296 553H5103V0ZM5103 1218V802H5265Q5440 802 5499.0 825.0Q5558 848 5591.5 897.0Q5625 946 5625 1011Q5625 1091 5578.0 1143.0Q5531 1195 5459 1208Q5406 1218 5246 1218ZM6024 1466H6355L6697 705L6989 1466H7298L6803 352Q6722 171 6638.0 76.5Q6554 -18 6421 -18Q6290 -18 6216 -1V219Q6279 215 6330 215Q6433 215 6477.5 252.5Q6522 290 6563 414ZM7565 1466H8578V246H8707V-320H8461V0H7538V-320H7292V246H7416Q7507 434 7536.0 682.5Q7565 931 7565 1311ZM7847 1220Q7847 552 7726 246H8283V1220ZM8846 724Q8846 948 8913 1100Q8963 1212 9049.5 1301.0Q9136 1390 9239 1433Q9376 1491 9555 1491Q9879 1491 10073.5 1290.0Q10268 1089 10268 731Q10268 376 10075.0 175.5Q9882 -25 9559 -25Q9232 -25 9039.0 174.5Q8846 374 8846 724ZM9151 734Q9151 485 9266.0 356.5Q9381 228 9558 228Q9735 228 9848.5 355.5Q9962 483 9962 738Q9962 990 9851.5 1114.0Q9741 1238 9558 1238Q9375 1238 9263.0 1112.5Q9151 987 9151 734ZM10500 1466H11086Q11260 1466 11345.5 1451.5Q11431 1437 11498.5 1391.0Q11566 1345 11611.0 1268.5Q11656 1192 11656 1097Q11656 994 11600.5 908.0Q11545 822 11450 779Q11584 740 11656.0 646.0Q11728 552 11728 425Q11728 325 11681.5 230.5Q11635 136 11554.5 79.5Q11474 23 11356 10Q11282 2 10999 0H10500ZM10796 1222V883H10990Q11163 883 11205 888Q11281 897 11324.5 940.5Q11368 984 11368 1055Q11368 1123 11330.5 1165.5Q11293 1208 11219 1217Q11175 1222 10966 1222ZM10796 639V247H11070Q11230 247 11273 256Q11339 268 11380.5 314.5Q11422 361 11422 439Q11422 505 11390.0 551.0Q11358 597 11297.5 618.0Q11237 639 11035 639ZM13300 0H12978L12850 333H12264L12143 0H11829L12400 1466H12713ZM12755 580 12553 1124 12355 580ZM13458 0V1466H13754V889H14334V1466H14630V0H14334V641H13754V0ZM14940 1466H15217V490L15811 1466H16106V0H15829V957L15236 0H14940ZM17285 0V612H17225Q17085 612 17027.5 570.0Q16970 528 16831 319L16617 0H16263L16442 286Q16548 456 16611.0 524.5Q16674 593 16769 647Q16564 679 16473.0 789.5Q16382 900 16382 1054Q16382 1188 16449.5 1291.5Q16517 1395 16627.5 1430.5Q16738 1466 16958 1466H17581V0ZM17285 1218H17054Q16878 1218 16822.5 1210.0Q16767 1202 16727.0 1156.0Q16687 1110 16687 1036Q16687 959 16725.5 913.5Q16764 868 16823.5 857.0Q16883 846 17066 846H17285Z"/></g>
<g data-label="СКИДКА ПО ПРОМОКОДУ" fill="#111111" transform="matrix(0.0073260 0 0 -0.0070883 16.25275 133.57579)"><path d="M1204 514 1398 465Q1337 226 1178.5 100.5Q1020 -25 791 -25Q554 -25 405.5 71.5Q257 168 179.5 351.0Q102 534 102 744Q102 973 189.5 1143.5Q277 1314 438.5 1402.5Q600 1491 794 1491Q1014 1491 1164.0 1379.0Q1314 1267 1373 1064L1182 1019Q1131 1179 1034.0 1252.0Q937 1325 790 1325Q621 1325 507.5 1244.0Q394 1163 348.0 1026.5Q302 890 302 745Q302 558 356.5 418.5Q411 279 526.0 210.0Q641 141 775 141Q938 141 1051.0 235.0Q1164 329 1204 514ZM1640 1466H1834V824Q1967 824 2021.0 875.5Q2075 927 2159 1123Q2220 1267 2259.5 1326.5Q2299 1386 2372.0 1426.5Q2445 1467 2533 1467Q2645 1467 2651 1465V1297Q2641 1297 2612 1298Q2580 1299 2573 1299Q2480 1299 2435 1254Q2389 1209 2330 1062Q2256 876 2205.0 827.5Q2154 779 2083 750Q2225 711 2363 488L2665 0H2424L2179 398Q2078 563 2010.0 624.5Q1942 686 1834 686V0H1640ZM2833 1466H3009V305L3789 1466H3984V0H3808V1158L3027 0H2833ZM4435 1466H5327V173H5459V-342H5286V0H4317V-342H4144V173H4258Q4435 440 4435 1252ZM5133 1293H4622V1218Q4622 1031 4588.5 706.5Q4555 382 4457 173H5133ZM5692 1466H5886V824Q6019 824 6073.0 875.5Q6127 927 6211 1123Q6272 1267 6311.5 1326.5Q6351 1386 6424.0 1426.5Q6497 1467 6585 1467Q6697 1467 6703 1465V1297Q6693 1297 6664 1298Q6632 1299 6625 1299Q6532 1299 6487 1254Q6441 1209 6382 1062Q6308 876 6257.0 827.5Q6206 779 6135 750Q6277 711 6415 488L6717 0H6476L6231 398Q6130 563 6062.0 624.5Q5994 686 5886 686V0H5692ZM6721 0 7284 1466H7493L8093 0H7872L7701 444H7088L6927 0ZM7144 602H7641L7488 1008Q7418 1193 7384 1312Q7356 1171 7305 1032ZM8819 1466H9972V0H9777V1293H9013V0H8819ZM10230 714Q10230 1079 10426.0 1285.5Q10622 1492 10932 1492Q11135 1492 11298.0 1395.0Q11461 1298 11546.5 1124.5Q11632 951 11632 731Q11632 508 11542.0 332.0Q11452 156 11287.0 65.5Q11122 -25 10931 -25Q10724 -25 10561.0 75.0Q10398 175 10314.0 348.0Q10230 521 10230 714ZM10430 711Q10430 446 10572.5 293.5Q10715 141 10930 141Q11149 141 11290.5 295.0Q11432 449 11432 732Q11432 911 11371.5 1044.5Q11311 1178 11194.5 1251.5Q11078 1325 10933 1325Q10727 1325 10578.5 1183.5Q10430 1042 10430 711ZM12453 1466H13606V0H13411V1293H12647V0H12453ZM13923 0V1466H14476Q14622 1466 14699 1452Q14807 1434 14880.0 1383.5Q14953 1333 14997.5 1242.0Q15042 1151 15042 1042Q15042 855 14923.0 725.5Q14804 596 14493 596H14117V0ZM14117 769H14496Q14684 769 14763.0 839.0Q14842 909 14842 1036Q14842 1128 14795.5 1193.5Q14749 1259 14673 1280Q14624 1293 14492 1293H14117ZM15230 714Q15230 1079 15426.0 1285.5Q15622 1492 15932 1492Q16135 1492 16298.0 1395.0Q16461 1298 16546.5 1124.5Q16632 951 16632 731Q16632 508 16542.0 332.0Q16452 156 16287.0 65.5Q16122 -25 15931 -25Q15724 -25 15561.0 75.0Q15398 175 15314.0 348.0Q15230 521 15230 714ZM15430 711Q15430 446 15572.5 293.5Q15715 141 15930 141Q16149 141 16290.5 295.0Q16432 449 16432 732Q16432 911 16371.5 1044.5Q16311 1178 16194.5 1251.5Q16078 1325 15933 1325Q15727 1325 15578.5 1183.5Q15430 1042 15430 711ZM16876 0V1466H17168L17515 428Q17563 283 17585 211Q17610 291 17663 446L18014 1466H18275V0H18088V1227L17662 0H17487L17063 1248V0ZM18529 714Q18529 1079 18725.0 1285.5Q18921 1492 19231 1492Q19434 1492 19597.0 1395.0Q19760 1298 19845.5 1124.5Q19931 951 19931 731Q19931 508 19841.0 332.0Q19751 156 19586.0 65.5Q19421 -25 19230 -25Q19023 -25 18860.0 75.0Q18697 175 18613.0 348.0Q18529 521 18529 714ZM18729 711Q18729 446 18871.5 293.5Q19014 141 19229 141Q19448 141 19589.5 295.0Q19731 449 19731 732Q19731 911 19670.5 1044.5Q19610 1178 19493.5 1251.5Q19377 1325 19232 1325Q19026 1325 18877.5 1183.5Q18729 1042 18729 711ZM20184 1466H20378V824Q20511 824 20565.0 875.5Q20619 927 20703 1123Q20764 1267 20803.5 1326.5Q20843 1386 20916.0 1426.5Q20989 1467 21077 1467Q21189 1467 21195 1465V1297Q21185 1297 21156 1298Q21124 1299 21117 1299Q21024 1299 20979 1254Q20933 1209 20874 1062Q20800 876 20749.0 827.5Q20698 779 20627 750Q20769 711 20907 488L21209 0H20968L20723 398Q20622 563 20554.0 624.5Q20486 686 20378 686V0H20184ZM21315 714Q21315 1079 21511.0 1285.5Q21707 1492 22017 1492Q22220 1492 22383.0 1395.0Q22546 1298 22631.5 1124.5Q22717 951 22717 731Q22717 508 22627.0 332.0Q22537 156 22372.0 65.5Q22207 -25 22016 -25Q21809 -25 21646.0 75.0Q21483 175 21399.0 348.0Q21315 521 21315 714ZM21515 711Q21515 446 21657.5 293.5Q21800 141 22015 141Q22234 141 22375.5 295.0Q22517 449 22517 732Q22517 911 22456.5 1044.5Q22396 1178 22279.5 1251.5Q22163 1325 22018 1325Q21812 1325 21663.5 1183.5Q21515 1042 21515 711ZM23100 1466H23992V173H24124V-342H23951V0H22982V-342H22809V173H22923Q23100 440 23100 1252ZM23798 1293H23287V1218Q23287 1031 23253.5 706.5Q23220 382 23122 173H23798ZM24206 1466H24402L24880 568L25298 1466H25491L24941 326Q24838 112 24772.0 46.0Q24706 -20 24583 -20Q24508 -20 24399 15V181Q24477 136 24564 136Q24635 136 24686.5 181.5Q24738 227 24800 389Z"/></g>
<g data-label="ASG" fill="#ff315d" transform="matrix(0.0071859 0 0 -0.0072512 208.00000 133.81147)"><path d="M1471 0H1149L1021 333H435L314 0H0L571 1466H884ZM926 580 724 1124 526 580ZM1553 477 1841 505Q1867 360 1946.5 292.0Q2026 224 2161 224Q2304 224 2376.5 284.5Q2449 345 2449 426Q2449 478 2418.5 514.5Q2388 551 2312 578Q2260 596 2075 642Q1837 701 1741 787Q1606 908 1606 1082Q1606 1194 1669.5 1291.5Q1733 1389 1852.5 1440.0Q1972 1491 2141 1491Q2417 1491 2556.5 1370.0Q2696 1249 2703 1047L2407 1034Q2388 1147 2325.5 1196.5Q2263 1246 2138 1246Q2009 1246 1936 1193Q1889 1159 1889 1102Q1889 1050 1933 1013Q1989 966 2205.0 915.0Q2421 864 2524.5 809.5Q2628 755 2686.5 660.5Q2745 566 2745 427Q2745 301 2675.0 191.0Q2605 81 2477.0 27.5Q2349 -26 2158 -26Q1880 -26 1731.0 102.5Q1582 231 1553 477ZM3676 539V786H4314V202Q4221 112 4044.5 43.5Q3868 -25 3687 -25Q3457 -25 3286.0 71.5Q3115 168 3029.0 347.5Q2943 527 2943 738Q2943 967 3039.0 1145.0Q3135 1323 3320 1418Q3461 1491 3671 1491Q3944 1491 4097.5 1376.5Q4251 1262 4295 1060L4001 1005Q3970 1113 3884.5 1175.5Q3799 1238 3671 1238Q3477 1238 3362.5 1115.0Q3248 992 3248 750Q3248 489 3364.0 358.5Q3480 228 3668 228Q3761 228 3854.5 264.5Q3948 301 4015 353V539Z"/></g>
<g data-label="НА ВЕСЬ АССОРТИМЕНТ" fill="#111111" transform="matrix(0.0073187 0 0 -0.0072512 15.79973 153.81872)"><path d="M164 0V1466H358V864H1120V1466H1314V0H1120V691H358V0ZM1476 0 2039 1466H2248L2848 0H2627L2456 444H1843L1682 0ZM1899 602H2396L2243 1008Q2173 1193 2139 1312Q2111 1171 2060 1032ZM3564 0V1466H4114Q4282 1466 4383.5 1421.5Q4485 1377 4542.5 1284.5Q4600 1192 4600 1091Q4600 997 4549.0 914.0Q4498 831 4395 780Q4528 741 4599.5 647.0Q4671 553 4671 425Q4671 322 4627.5 233.5Q4584 145 4520.0 97.0Q4456 49 4359.5 24.5Q4263 0 4123 0ZM3758 850H4075Q4204 850 4260 867Q4334 889 4371.5 940.0Q4409 991 4409 1068Q4409 1141 4374.0 1196.5Q4339 1252 4274.0 1272.5Q4209 1293 4051 1293H3758ZM3758 173H4123Q4217 173 4255 180Q4322 192 4367.0 220.0Q4412 248 4441.0 301.5Q4470 355 4470 425Q4470 507 4428.0 567.5Q4386 628 4311.5 652.5Q4237 677 4097 677H3758ZM4942 0V1466H6002V1293H5136V844H5947V672H5136V173H6036V0ZM7350 514 7544 465Q7483 226 7324.5 100.5Q7166 -25 6937 -25Q6700 -25 6551.5 71.5Q6403 168 6325.5 351.0Q6248 534 6248 744Q6248 973 6335.5 1143.5Q6423 1314 6584.5 1402.5Q6746 1491 6940 1491Q7160 1491 7310.0 1379.0Q7460 1267 7519 1064L7328 1019Q7277 1179 7180.0 1252.0Q7083 1325 6936 1325Q6767 1325 6653.5 1244.0Q6540 1163 6494.0 1026.5Q6448 890 6448 745Q6448 558 6502.5 418.5Q6557 279 6672.0 210.0Q6787 141 6921 141Q7084 141 7197.0 235.0Q7310 329 7350 514ZM7790 1466H7984V840H8334Q8579 840 8689.0 783.0Q8799 726 8847.0 628.0Q8895 530 8895 426Q8895 256 8779.0 128.0Q8663 0 8347 0H7790ZM7984 165H8339Q8555 165 8620.5 241.5Q8686 318 8686 426Q8686 514 8638.5 575.5Q8591 637 8512.0 655.0Q8433 673 8244 673H7984ZM9535 0 10098 1466H10307L10907 0H10686L10515 444H9902L9741 0ZM9958 602H10455L10302 1008Q10232 1193 10198 1312Q10170 1171 10119 1032ZM12108 514 12302 465Q12241 226 12082.5 100.5Q11924 -25 11695 -25Q11458 -25 11309.5 71.5Q11161 168 11083.5 351.0Q11006 534 11006 744Q11006 973 11093.5 1143.5Q11181 1314 11342.5 1402.5Q11504 1491 11698 1491Q11918 1491 12068.0 1379.0Q12218 1267 12277 1064L12086 1019Q12035 1179 11938.0 1252.0Q11841 1325 11694 1325Q11525 1325 11411.5 1244.0Q11298 1163 11252.0 1026.5Q11206 890 11206 745Q11206 558 11260.5 418.5Q11315 279 11430.0 210.0Q11545 141 11679 141Q11842 141 11955.0 235.0Q12068 329 12108 514ZM13587 514 13781 465Q13720 226 13561.5 100.5Q13403 -25 13174 -25Q12937 -25 12788.5 71.5Q12640 168 12562.5 351.0Q12485 534 12485 744Q12485 973 12572.5 1143.5Q12660 1314 12821.5 1402.5Q12983 1491 13177 1491Q13397 1491 13547.0 1379.0Q13697 1267 13756 1064L13565 1019Q13514 1179 13417.0 1252.0Q13320 1325 13173 1325Q13004 1325 12890.5 1244.0Q12777 1163 12731.0 1026.5Q12685 890 12685 745Q12685 558 12739.5 418.5Q12794 279 12909.0 210.0Q13024 141 13158 141Q13321 141 13434.0 235.0Q13547 329 13587 514ZM13961 714Q13961 1079 14157.0 1285.5Q14353 1492 14663 1492Q14866 1492 15029.0 1395.0Q15192 1298 15277.5 1124.5Q15363 951 15363 731Q15363 508 15273.0 332.0Q15183 156 15018.0 65.5Q14853 -25 14662 -25Q14455 -25 14292.0 75.0Q14129 175 14045.0 348.0Q13961 521 13961 714ZM14161 711Q14161 446 14303.5 293.5Q14446 141 14661 141Q14880 141 15021.5 295.0Q15163 449 15163 732Q15163 911 15102.5 1044.5Q15042 1178 14925.5 1251.5Q14809 1325 14664 1325Q14458 1325 14309.5 1183.5Q14161 1042 14161 711ZM15613 0V1466H16166Q16312 1466 16389 1452Q16497 1434 16570.0 1383.5Q16643 1333 16687.5 1242.0Q16732 1151 16732 1042Q16732 855 16613.0 725.5Q16494 596 16183 596H15807V0ZM15807 769H16186Q16374 769 16453.0 839.0Q16532 909 16532 1036Q16532 1128 16485.5 1193.5Q16439 1259 16363 1280Q16314 1293 16182 1293H15807ZM17352 0V1293H16869V1466H18031V1293H17546V0ZM18233 1466H18409V305L19189 1466H19384V0H19208V1158L18427 0H18233ZM19696 0V1466H19988L20335 428Q20383 283 20405 211Q20430 291 20483 446L20834 1466H21095V0H20908V1227L20482 0H20307L19883 1248V0ZM21412 0V1466H22472V1293H21606V844H22417V672H21606V173H22506V0ZM22780 0V1466H22974V864H23736V1466H23930V0H23736V691H22974V0ZM24626 0V1293H24143V1466H25305V1293H24820V0Z"/></g>
</svg>
